<?xml version="1.0" encoding="UTF-8" standalone="no"?>
<!DOCTYPE svg PUBLIC "-//W3C//DTD SVG 1.1//EN"
 "http://www.w3.org/Graphics/SVG/1.1/DTD/svg11.dtd">
<!-- Generated by graphviz version 2.44.0 ()
 -->
<!-- Title: controllers_diagram Pages: 1 -->
<svg width="397pt" height="375pt"
 viewBox="0.00 0.00 397.00 375.00" xmlns="http://www.w3.org/2000/svg" xmlns:xlink="http://www.w3.org/1999/xlink">
<g id="graph0" class="graph" transform="scale(1 1) rotate(0) translate(4 371)">
<title>controllers_diagram</title>
<polygon fill="transparent" stroke="transparent" points="-4,4 -4,-371 393,-371 393,4 -4,4"/>
<!-- _diagram_info -->
<g id="node1" class="node">
<title>_diagram_info</title>
<text text-anchor="start" x="8" y="-159.6" font-family="Times,serif" font-size="13.00">Controllers diagram</text>
<text text-anchor="start" x="8" y="-145.6" font-family="Times,serif" font-size="13.00">Date: Jul 20 2021 &#45; 18:15</text>
<text text-anchor="start" x="8" y="-131.6" font-family="Times,serif" font-size="13.00">Migration version: 20210715190051</text>
<text text-anchor="start" x="8" y="-117.6" font-family="Times,serif" font-size="13.00">Generated by RailRoady 1.5.3</text>
<text text-anchor="start" x="8" y="-103.6" font-family="Times,serif" font-size="13.00">http://railroady.prestonlee.com</text>
</g>
<!-- ApplicationController -->
<g id="node2" class="node">
<title>ApplicationController</title>
<path fill="none" stroke="black" d="M12,-272.5C12,-272.5 143,-272.5 143,-272.5 149,-272.5 155,-278.5 155,-284.5 155,-284.5 155,-354.5 155,-354.5 155,-360.5 149,-366.5 143,-366.5 143,-366.5 12,-366.5 12,-366.5 6,-366.5 0,-360.5 0,-354.5 0,-354.5 0,-284.5 0,-284.5 0,-278.5 6,-272.5 12,-272.5"/>
<text text-anchor="middle" x="77.5" y="-351.3" font-family="Times,serif" font-size="14.00">ApplicationController</text>
<polyline fill="none" stroke="black" points="0,-343.5 155,-343.5 "/>
<polyline fill="none" stroke="black" points="0,-319.5 155,-319.5 "/>
<polyline fill="none" stroke="black" points="0,-295.5 155,-295.5 "/>
<text text-anchor="start" x="8" y="-280.3" font-family="Times,serif" font-size="14.00">_layout</text>
</g>
<!-- BaseController -->
<g id="node3" class="node">
<title>BaseController</title>
<path fill="none" stroke="black" d="M284,-0.5C284,-0.5 373,-0.5 373,-0.5 379,-0.5 385,-6.5 385,-12.5 385,-12.5 385,-81.5 385,-81.5 385,-87.5 379,-93.5 373,-93.5 373,-93.5 284,-93.5 284,-93.5 278,-93.5 272,-87.5 272,-81.5 272,-81.5 272,-12.5 272,-12.5 272,-6.5 278,-0.5 284,-0.5"/>
<text text-anchor="middle" x="328.5" y="-78.3" font-family="Times,serif" font-size="14.00">BaseController</text>
<polyline fill="none" stroke="black" points="272,-70.5 385,-70.5 "/>
<text text-anchor="start" x="280" y="-55.3" font-family="Times,serif" font-size="14.00">index</text>
<polyline fill="none" stroke="black" points="272,-47.5 385,-47.5 "/>
<polyline fill="none" stroke="black" points="272,-23.5 385,-23.5 "/>
<text text-anchor="start" x="280" y="-8.3" font-family="Times,serif" font-size="14.00">_layout</text>
</g>
<!-- ConfirmationsController -->
<g id="node4" class="node">
<title>ConfirmationsController</title>
<path fill="none" stroke="black" d="M204,-208.5C204,-208.5 377,-208.5 377,-208.5 383,-208.5 389,-214.5 389,-220.5 389,-220.5 389,-305.5 389,-305.5 389,-311.5 383,-317.5 377,-317.5 377,-317.5 204,-317.5 204,-317.5 198,-317.5 192,-311.5 192,-305.5 192,-305.5 192,-220.5 192,-220.5 192,-214.5 198,-208.5 204,-208.5"/>
<text text-anchor="middle" x="290.5" y="-302.3" font-family="Times,serif" font-size="14.00">ConfirmationsController</text>
<polyline fill="none" stroke="black" points="192,-294.5 389,-294.5 "/>
<polyline fill="none" stroke="black" points="192,-270.5 389,-270.5 "/>
<polyline fill="none" stroke="black" points="192,-246.5 389,-246.5 "/>
<text text-anchor="start" x="200" y="-231.3" font-family="Times,serif" font-size="14.00">_layout</text>
<text text-anchor="start" x="200" y="-216.3" font-family="Times,serif" font-size="14.00">after_confirmation_path_for</text>
</g>
</g>
</svg>
