<?xml version="1.0" encoding="UTF-8" standalone="no"?>
<!DOCTYPE svg PUBLIC "-//W3C//DTD SVG 1.1//EN"
 "http://www.w3.org/Graphics/SVG/1.1/DTD/svg11.dtd">
<!-- Generated by graphviz version 2.44.0 ()
 -->
<!-- Title: models_diagram Pages: 1 -->
<svg width="2440pt" height="205pt"
 viewBox="0.00 0.00 2440.24 205.00" xmlns="http://www.w3.org/2000/svg" xmlns:xlink="http://www.w3.org/1999/xlink">
<g id="graph0" class="graph" transform="scale(1 1) rotate(0) translate(4 201)">
<title>models_diagram</title>
<polygon fill="transparent" stroke="transparent" points="-4,4 -4,-201 2436.24,-201 2436.24,4 -4,4"/>
<!-- _diagram_info -->
<g id="node1" class="node">
<title>_diagram_info</title>
<text text-anchor="start" x="8" y="-123.1" font-family="Times,serif" font-size="13.00">Models diagram</text>
<text text-anchor="start" x="8" y="-109.1" font-family="Times,serif" font-size="13.00">Date: Jul 20 2021 &#45; 18:15</text>
<text text-anchor="start" x="8" y="-95.1" font-family="Times,serif" font-size="13.00">Migration version: 20210715190051</text>
<text text-anchor="start" x="8" y="-81.1" font-family="Times,serif" font-size="13.00">Generated by RailRoady 1.5.3</text>
<text text-anchor="start" x="8" y="-67.1" font-family="Times,serif" font-size="13.00">http://railroady.prestonlee.com</text>
</g>
<!-- RoleUser -->
<g id="node2" class="node">
<title>RoleUser</title>
<path fill="none" stroke="black" d="M265,-45.5C265,-45.5 546,-45.5 546,-45.5 552,-45.5 558,-51.5 558,-57.5 558,-57.5 558,-139.5 558,-139.5 558,-145.5 552,-151.5 546,-151.5 546,-151.5 265,-151.5 265,-151.5 259,-151.5 253,-145.5 253,-139.5 253,-139.5 253,-57.5 253,-57.5 253,-51.5 259,-45.5 265,-45.5"/>
<text text-anchor="middle" x="405.5" y="-136.3" font-family="Times,serif" font-size="14.00">RoleUser</text>
<polyline fill="none" stroke="black" points="253,-128.5 558,-128.5 "/>
<text text-anchor="start" x="261" y="-113.3" font-family="Times,serif" font-size="14.00">id :bigint</text>
<text text-anchor="start" x="261" y="-98.3" font-family="Times,serif" font-size="14.00">role_id :bigint</text>
<text text-anchor="start" x="261" y="-83.3" font-family="Times,serif" font-size="14.00">user_id :bigint</text>
<text text-anchor="start" x="261" y="-68.3" font-family="Times,serif" font-size="14.00">created_at :timestamp(6) without time zone</text>
<text text-anchor="start" x="261" y="-53.3" font-family="Times,serif" font-size="14.00">updated_at :timestamp(6) without time zone</text>
</g>
<!-- User -->
<g id="node3" class="node">
<title>User</title>
<path fill="none" stroke="black" d="M588.5,-0.5C588.5,-0.5 934.5,-0.5 934.5,-0.5 940.5,-0.5 946.5,-6.5 946.5,-12.5 946.5,-12.5 946.5,-184.5 946.5,-184.5 946.5,-190.5 940.5,-196.5 934.5,-196.5 934.5,-196.5 588.5,-196.5 588.5,-196.5 582.5,-196.5 576.5,-190.5 576.5,-184.5 576.5,-184.5 576.5,-12.5 576.5,-12.5 576.5,-6.5 582.5,-0.5 588.5,-0.5"/>
<text text-anchor="middle" x="761.5" y="-181.3" font-family="Times,serif" font-size="14.00">User</text>
<polyline fill="none" stroke="black" points="576.5,-173.5 946.5,-173.5 "/>
<text text-anchor="start" x="584.5" y="-158.3" font-family="Times,serif" font-size="14.00">id :bigint</text>
<text text-anchor="start" x="584.5" y="-143.3" font-family="Times,serif" font-size="14.00">created_at :timestamp(6) without time zone</text>
<text text-anchor="start" x="584.5" y="-128.3" font-family="Times,serif" font-size="14.00">updated_at :timestamp(6) without time zone</text>
<text text-anchor="start" x="584.5" y="-113.3" font-family="Times,serif" font-size="14.00">email :character varying</text>
<text text-anchor="start" x="584.5" y="-98.3" font-family="Times,serif" font-size="14.00">encrypted_password :character varying</text>
<text text-anchor="start" x="584.5" y="-83.3" font-family="Times,serif" font-size="14.00">reset_password_token :character varying</text>
<text text-anchor="start" x="584.5" y="-68.3" font-family="Times,serif" font-size="14.00">reset_password_sent_at :timestamp without time zone</text>
<text text-anchor="start" x="584.5" y="-53.3" font-family="Times,serif" font-size="14.00">remember_created_at :timestamp without time zone</text>
<text text-anchor="start" x="584.5" y="-38.3" font-family="Times,serif" font-size="14.00">confirmation_token :character varying</text>
<text text-anchor="start" x="584.5" y="-23.3" font-family="Times,serif" font-size="14.00">confirmed_at :timestamp without time zone</text>
<text text-anchor="start" x="584.5" y="-8.3" font-family="Times,serif" font-size="14.00">confirmation_sent_at :timestamp without time zone</text>
</g>
<!-- Profile -->
<g id="node4" class="node">
<title>Profile</title>
<path fill="none" stroke="black" d="M977,-0.5C977,-0.5 1258,-0.5 1258,-0.5 1264,-0.5 1270,-6.5 1270,-12.5 1270,-12.5 1270,-184.5 1270,-184.5 1270,-190.5 1264,-196.5 1258,-196.5 1258,-196.5 977,-196.5 977,-196.5 971,-196.5 965,-190.5 965,-184.5 965,-184.5 965,-12.5 965,-12.5 965,-6.5 971,-0.5 977,-0.5"/>
<text text-anchor="middle" x="1117.5" y="-181.3" font-family="Times,serif" font-size="14.00">Profile</text>
<polyline fill="none" stroke="black" points="965,-173.5 1270,-173.5 "/>
<text text-anchor="start" x="973" y="-158.3" font-family="Times,serif" font-size="14.00">id :bigint</text>
<text text-anchor="start" x="973" y="-143.3" font-family="Times,serif" font-size="14.00">name :character varying</text>
<text text-anchor="start" x="973" y="-128.3" font-family="Times,serif" font-size="14.00">surname :character varying</text>
<text text-anchor="start" x="973" y="-113.3" font-family="Times,serif" font-size="14.00">patronymic :character varying</text>
<text text-anchor="start" x="973" y="-98.3" font-family="Times,serif" font-size="14.00">created_at :timestamp(6) without time zone</text>
<text text-anchor="start" x="973" y="-83.3" font-family="Times,serif" font-size="14.00">updated_at :timestamp(6) without time zone</text>
<text text-anchor="start" x="973" y="-68.3" font-family="Times,serif" font-size="14.00">gender :character varying</text>
<text text-anchor="start" x="973" y="-53.3" font-family="Times,serif" font-size="14.00">birthday :date</text>
<text text-anchor="start" x="973" y="-38.3" font-family="Times,serif" font-size="14.00">weight :integer</text>
<text text-anchor="start" x="973" y="-23.3" font-family="Times,serif" font-size="14.00">adress :character varying</text>
<text text-anchor="start" x="973" y="-8.3" font-family="Times,serif" font-size="14.00">user_id :bigint</text>
</g>
<!-- Appointment -->
<g id="node5" class="node">
<title>Appointment</title>
<path fill="none" stroke="black" d="M1300,-8C1300,-8 1581,-8 1581,-8 1587,-8 1593,-14 1593,-20 1593,-20 1593,-177 1593,-177 1593,-183 1587,-189 1581,-189 1581,-189 1300,-189 1300,-189 1294,-189 1288,-183 1288,-177 1288,-177 1288,-20 1288,-20 1288,-14 1294,-8 1300,-8"/>
<text text-anchor="middle" x="1440.5" y="-173.8" font-family="Times,serif" font-size="14.00">Appointment</text>
<polyline fill="none" stroke="black" points="1288,-166 1593,-166 "/>
<text text-anchor="start" x="1296" y="-150.8" font-family="Times,serif" font-size="14.00">id :bigint</text>
<text text-anchor="start" x="1296" y="-135.8" font-family="Times,serif" font-size="14.00">time :timestamp without time zone</text>
<text text-anchor="start" x="1296" y="-120.8" font-family="Times,serif" font-size="14.00">vaccine :character varying</text>
<text text-anchor="start" x="1296" y="-105.8" font-family="Times,serif" font-size="14.00">dose :integer</text>
<text text-anchor="start" x="1296" y="-90.8" font-family="Times,serif" font-size="14.00">note :text</text>
<text text-anchor="start" x="1296" y="-75.8" font-family="Times,serif" font-size="14.00">patient_id :bigint</text>
<text text-anchor="start" x="1296" y="-60.8" font-family="Times,serif" font-size="14.00">doctor_id :bigint</text>
<text text-anchor="start" x="1296" y="-45.8" font-family="Times,serif" font-size="14.00">created_at :timestamp(6) without time zone</text>
<text text-anchor="start" x="1296" y="-30.8" font-family="Times,serif" font-size="14.00">updated_at :timestamp(6) without time zone</text>
<text text-anchor="start" x="1296" y="-15.8" font-family="Times,serif" font-size="14.00">aasm_state :character varying</text>
</g>
<!-- Certificate -->
<g id="node6" class="node">
<title>Certificate</title>
<path fill="none" stroke="black" d="M1623,-38C1623,-38 1904,-38 1904,-38 1910,-38 1916,-44 1916,-50 1916,-50 1916,-147 1916,-147 1916,-153 1910,-159 1904,-159 1904,-159 1623,-159 1623,-159 1617,-159 1611,-153 1611,-147 1611,-147 1611,-50 1611,-50 1611,-44 1617,-38 1623,-38"/>
<text text-anchor="middle" x="1763.5" y="-143.8" font-family="Times,serif" font-size="14.00">Certificate</text>
<polyline fill="none" stroke="black" points="1611,-136 1916,-136 "/>
<text text-anchor="start" x="1619" y="-120.8" font-family="Times,serif" font-size="14.00">id :bigint</text>
<text text-anchor="start" x="1619" y="-105.8" font-family="Times,serif" font-size="14.00">dates :timestamp without time zone</text>
<text text-anchor="start" x="1619" y="-90.8" font-family="Times,serif" font-size="14.00">vaccine :character varying</text>
<text text-anchor="start" x="1619" y="-75.8" font-family="Times,serif" font-size="14.00">user_id :bigint</text>
<text text-anchor="start" x="1619" y="-60.8" font-family="Times,serif" font-size="14.00">created_at :timestamp(6) without time zone</text>
<text text-anchor="start" x="1619" y="-45.8" font-family="Times,serif" font-size="14.00">updated_at :timestamp(6) without time zone</text>
</g>
<!-- Role -->
<g id="node7" class="node">
<title>Role</title>
<path fill="none" stroke="black" d="M1946,-53C1946,-53 2227,-53 2227,-53 2233,-53 2239,-59 2239,-65 2239,-65 2239,-132 2239,-132 2239,-138 2233,-144 2227,-144 2227,-144 1946,-144 1946,-144 1940,-144 1934,-138 1934,-132 1934,-132 1934,-65 1934,-65 1934,-59 1940,-53 1946,-53"/>
<text text-anchor="middle" x="2086.5" y="-128.8" font-family="Times,serif" font-size="14.00">Role</text>
<polyline fill="none" stroke="black" points="1934,-121 2239,-121 "/>
<text text-anchor="start" x="1942" y="-105.8" font-family="Times,serif" font-size="14.00">id :bigint</text>
<text text-anchor="start" x="1942" y="-90.8" font-family="Times,serif" font-size="14.00">name :character varying</text>
<text text-anchor="start" x="1942" y="-75.8" font-family="Times,serif" font-size="14.00">created_at :timestamp(6) without time zone</text>
<text text-anchor="start" x="1942" y="-60.8" font-family="Times,serif" font-size="14.00">updated_at :timestamp(6) without time zone</text>
</g>
<!-- ApplicationRecord -->
<g id="node8" class="node">
<title>ApplicationRecord</title>
<ellipse fill="none" stroke="black" cx="2344.5" cy="-98.5" rx="87.99" ry="18"/>
<text text-anchor="middle" x="2344.5" y="-94.8" font-family="Times,serif" font-size="14.00">ApplicationRecord</text>
</g>
</g>
</svg>
